HIERARCHY
ROOT Hips
{
	OFFSET -0.001795 -0.223333 0.028219
	CHANNELS 6 Xposition Yposition Zposition Zrotation Yrotation Xrotation 
	JOINT LeftUpLeg
	{
		OFFSET 0.069520 -0.091406 -0.006815
		CHANNELS 3 Zrotation Yrotation Xrotation
		JOINT LeftLeg
		{
			OFFSET 0.034277 -0.375199 -0.004496
			CHANNELS 3 Zrotation Yrotation Xrotation
			JOINT LeftFoot
			{
				OFFSET -0.013596 -0.397961 -0.043693
				CHANNELS 3 Zrotation Yrotation Xrotation
				JOINT LeftToe
				{
					OFFSET 0.026358 -0.055791 0.119288
					CHANNELS 3 Zrotation Yrotation Xrotation
					End Site
					{
						OFFSET 0.000000 0.000000 0.000000
					}
				}
			}
		}
	}
	JOINT RightUpLeg
	{
		OFFSET -0.067670 -0.090522 -0.004320
		CHANNELS 3 Zrotation Yrotation Xrotation
		JOINT RightLeg
		{
			OFFSET -0.038290 -0.382569 -0.008850
			CHANNELS 3 Zrotation Yrotation Xrotation
			JOINT RightFoot
			{
				OFFSET 0.015774 -0.398415 -0.042312
				CHANNELS 3 Zrotation Yrotation Xrotation
				JOINT RightToe
				{
					OFFSET -0.025372 -0.048144 0.123348
					CHANNELS 3 Zrotation Yrotation Xrotation
					End Site
					{
						OFFSET 0.000000 0.000000 0.000000
					}
				}
			}
		}
	}
	JOINT Spine
	{
		OFFSET -0.002533 0.108963 -0.026696
		CHANNELS 3 Zrotation Yrotation Xrotation
		JOINT Spine1
		{
			OFFSET 0.005487 0.135180 0.001092
			CHANNELS 3 Zrotation Yrotation Xrotation
			JOINT Spine2
			{
				OFFSET 0.001457 0.052922 0.025425
				CHANNELS 3 Zrotation Yrotation Xrotation
				JOINT Neck
				{
					OFFSET -0.002778 0.213870 -0.042857
					CHANNELS 3 Zrotation Yrotation Xrotation
					JOINT Head
					{
						OFFSET 0.005152 0.064970 0.051349
						CHANNELS 3 Zrotation Yrotation Xrotation
						End Site
						{
							OFFSET 0.000000 0.000000 0.000000
						}
					}
				}
				JOINT LeftShoulder
				{
					OFFSET 0.078845 0.121749 -0.034090
					CHANNELS 3 Zrotation Yrotation Xrotation
					JOINT LeftArm
					{
						OFFSET 0.090977 0.030469 -0.008868
						CHANNELS 3 Zrotation Yrotation Xrotation
						JOINT LeftForeArm
						{
							OFFSET 0.259612 -0.012772 -0.027456
							CHANNELS 3 Zrotation Yrotation Xrotation
							JOINT LeftHand
							{
								OFFSET 0.249234 0.008986 -0.001171
								CHANNELS 3 Zrotation Yrotation Xrotation
								End Site
								{
									OFFSET 0.000000 0.000000 0.000000
								}
							}
						}
					}
				}
				JOINT RightShoulder
				{
					OFFSET -0.081759 0.118833 -0.038615
					CHANNELS 3 Zrotation Yrotation Xrotation
					JOINT RightArm
					{
						OFFSET -0.096012 0.032551 -0.009143
						CHANNELS 3 Zrotation Yrotation Xrotation
						JOINT RightForeArm
						{
							OFFSET -0.253742 -0.013329 -0.021401
							CHANNELS 3 Zrotation Yrotation Xrotation
							JOINT RightHand
							{
								OFFSET -0.255298 0.007772 -0.005559
								CHANNELS 3 Zrotation Yrotation Xrotation
								End Site
								{
									OFFSET 0.000000 0.000000 0.000000
								}
							}
						}
					}
				}
			}
		}
	}
}
MOTION
Frames: 17
Frame Time: 0.050000
1.557849 0.874246 1.317295 175.669159 46.945197 167.552334 5.634506 -7.052171 -23.508063 -16.555521 -10.303957 18.770936 38.153529 4.121659 35.588810 0.000000 0.000000 0.000000 -11.313204 -13.841043 20.767068 -55.141995 -21.641577 55.356185 42.248727 16.452623 44.592940 0.000000 0.000000 0.000000 -14.283839 -3.727334 7.325978 10.904391 -1.155045 -17.237253 6.577010 19.762777 29.668762 -2.276313 -1.017914 -28.304821 0.000000 0.000000 0.000000 -18.623453 3.665014 -68.301430 14.748705 61.261928 15.596054 -30.291627 3.225641 -2.807796 0.000000 0.000000 0.000000 10.278971 -2.468846 36.983648 41.014068 53.873648 22.102757 -20.372003 51.602516 -5.611033 0.000000 0.000000 0.000000 
1.600370 0.896020 1.251151 175.424588 41.323201 166.119559 -1.138568 -3.351227 -17.236746 -12.267530 -10.570885 20.730824 33.247696 0.483792 24.213473 0.000000 0.000000 0.000000 -5.940572 -8.494773 9.289991 -92.350963 -17.257358 83.031365 48.647183 17.787874 58.000447 0.000000 0.000000 0.000000 -16.380936 -4.880358 11.281981 12.665761 -1.285156 -18.941942 4.210443 18.067432 30.037936 -0.506501 -0.572027 -31.346916 0.000000 0.000000 0.000000 -18.924377 2.464503 -69.160438 3.474350 61.114073 8.876248 -34.339338 -0.243909 -1.529392 0.000000 0.000000 0.000000 12.096581 -3.393322 41.372435 42.474170 54.922930 20.929505 -12.329124 43.825587 -3.898519 0.000000 0.000000 0.000000 
1.641754 0.921581 1.187897 177.486960 35.334450 165.531030 -3.759941 -0.799688 -9.381817 -7.001255 -9.574181 19.956350 25.937968 -5.054114 15.702198 0.000000 0.000000 0.000000 -2.882457 -6.611352 0.379200 -105.070354 -11.364304 92.748298 57.095543 23.606280 59.980423 0.000000 0.000000 0.000000 -15.562869 -4.892430 13.078770 13.107811 -2.974665 -17.295316 3.764802 14.774345 27.882695 -3.871339 -3.706341 -29.644663 0.000000 0.000000 0.000000 -19.917882 1.659242 -70.771133 -3.866547 60.077227 4.948343 -41.006157 -2.357492 -0.026664 0.000000 0.000000 0.000000 10.981483 -3.086646 41.908962 48.866675 51.150614 22.701271 -7.725922 37.524249 -2.762399 0.000000 0.000000 0.000000 
1.681402 0.941428 1.127756 179.959754 26.524989 165.751217 -4.160534 -0.860369 -2.094043 -3.288107 -7.807029 16.297910 24.000223 -11.893726 13.514526 0.000000 0.000000 0.000000 -0.202938 -7.236738 -7.746049 -97.807868 -17.629329 93.941427 59.455990 27.828118 48.029659 0.000000 0.000000 0.000000 -16.139364 -6.208666 16.758489 16.476886 -3.844627 -20.068627 2.917084 12.191653 30.575244 -2.940847 -4.939252 -33.065523 0.000000 0.000000 0.000000 -16.861832 1.372443 -75.873257 -6.316220 61.813998 3.647857 -47.787496 -3.294005 1.298900 0.000000 0.000000 0.000000 12.940281 -7.591183 46.980119 43.437373 51.194095 17.225073 -6.948765 33.607786 -2.918051 0.000000 0.000000 0.000000 
1.717249 0.950847 1.071763 -178.489089 16.574755 165.883327 -5.286917 -2.688634 3.879489 0.578663 -6.118906 13.245132 26.978141 -18.687699 10.775990 0.000000 0.000000 0.000000 0.555142 -8.852414 -10.463622 -55.191855 -35.057531 68.125438 43.522219 15.214624 14.538748 0.000000 0.000000 0.000000 -14.647287 -6.519510 18.537852 16.929431 -3.940713 -22.099720 2.983818 7.535857 31.683085 -5.478297 -11.641819 -33.723069 0.000000 0.000000 0.000000 -11.814831 0.272765 -90.400977 11.342412 65.635361 17.809035 -52.211951 0.623019 0.845072 0.000000 0.000000 0.000000 10.090565 -11.549166 55.854418 39.309443 55.103484 18.140877 -10.402090 26.422677 -3.430807 0.000000 0.000000 0.000000 
1.749155 0.949912 1.019598 -177.189407 8.673309 166.800096 -2.897747 -4.028250 3.860261 -1.384571 -8.237528 15.971634 34.598840 -22.532285 8.914697 0.000000 0.000000 0.000000 -1.175005 -11.392992 -10.827627 -14.475023 -23.181593 27.818936 41.625149 -8.441293 6.413030 0.000000 0.000000 0.000000 -12.138431 -5.607637 18.054777 15.670439 -4.751285 -21.769863 4.128975 7.367352 28.029126 -9.627521 -25.039593 -27.821543 0.000000 0.000000 0.000000 0.816724 6.479109 -129.580871 77.733200 42.187776 55.656222 -53.881250 32.032329 -15.146889 0.000000 0.000000 0.000000 6.402090 -17.912047 73.457862 29.801432 63.683037 18.174677 -15.320281 20.776099 -4.042573 0.000000 0.000000 0.000000 
1.777979 0.942247 0.971674 -176.683406 -3.002167 168.310444 -2.798869 4.595973 -0.492137 25.144050 23.327055 30.241713 -140.642690 27.951783 -25.370518 0.000000 0.000000 0.000000 -4.627326 6.116878 -7.063920 4.975091 8.444502 11.996224 -63.141932 43.708202 27.365088 0.000000 0.000000 0.000000 -5.391551 5.847515 18.196633 12.586563 13.484800 -29.577227 -10.028416 -21.982207 30.635467 0.116751 30.208400 -21.819162 0.000000 0.000000 0.000000 4.572233 21.438605 176.970853 91.220904 -8.972926 -17.540510 46.895080 38.691929 10.680123 0.000000 0.000000 0.000000 -5.912875 -21.835196 120.422196 -65.765209 65.003979 -37.050362 -23.431964 0.307709 -2.524572 0.000000 0.000000 0.000000 
1.805060 0.934176 0.932424 -175.001435 -14.526140 167.706235 -3.688443 3.402927 -2.917044 41.789830 28.597437 45.467408 -104.406864 18.101042 3.906396 0.000000 0.000000 0.000000 -2.749623 4.150494 -5.031569 8.689267 10.137879 16.339020 -73.095979 42.235083 31.542492 0.000000 0.000000 0.000000 -2.365255 3.957792 18.793912 9.697297 9.458602 -33.256265 -4.728846 -15.702042 33.283759 -6.325580 12.176177 -30.227396 0.000000 0.000000 0.000000 -23.486424 28.743744 78.890585 22.943452 -72.136602 -32.203172 35.378609 -36.898184 -13.927735 0.000000 0.000000 0.000000 -17.472867 -1.863732 -149.542270 -91.462306 -8.458278 23.258937 11.159228 -31.501092 -8.540198 0.000000 0.000000 0.000000 
1.832373 0.935456 0.903792 -175.418181 -26.308782 167.726955 -5.488648 1.909598 -3.566593 39.471812 27.952315 47.169060 -72.917221 -3.151502 11.861703 0.000000 0.000000 0.000000 -2.610204 3.203248 -5.411651 12.227437 11.209291 20.573536 -65.041290 24.903357 38.213070 0.000000 0.000000 0.000000 -2.088904 4.815109 20.850073 8.957533 7.763541 -33.726525 -4.269978 -14.881394 31.050019 -12.281300 8.311171 -26.856656 0.000000 0.000000 0.000000 -33.948213 25.770951 49.127141 -27.127691 -56.413194 -3.272722 12.253682 -49.293454 -5.363346 0.000000 0.000000 0.000000 -1.267598 17.124955 -83.924379 -50.113277 -68.888346 41.226877 34.251130 -3.705140 -6.547559 0.000000 0.000000 0.000000 
1.860437 0.941891 0.878591 -175.327458 -38.887775 168.637098 -6.116842 1.084666 -3.222852 26.976542 25.798316 42.146017 -38.742185 -12.733408 3.860465 0.000000 0.000000 0.000000 -3.228349 2.720577 -4.538635 14.602273 10.585277 22.530288 -52.447450 0.946164 36.209167 0.000000 0.000000 0.000000 -2.506582 4.626058 20.847046 7.072230 3.965206 -32.118757 0.391141 -10.550049 28.004753 -16.272898 5.883741 -23.848926 0.000000 0.000000 0.000000 -34.130349 20.767088 33.750572 -40.785045 -40.185517 -1.368489 -2.732071 -51.461838 4.485552 0.000000 0.000000 0.000000 8.308875 13.745302 -47.897490 35.688519 -59.539999 -21.426750 34.316270 10.506299 -2.541642 0.000000 0.000000 0.000000 
1.888437 0.950123 0.854209 -173.132539 -51.363042 167.861864 -5.297821 0.881618 -3.489810 17.435397 19.625365 34.421446 -29.441968 -13.224026 2.024465 0.000000 0.000000 0.000000 -3.702502 2.251192 -4.496123 15.195641 9.626489 24.430963 -36.986472 -13.133804 28.457068 0.000000 0.000000 0.000000 -3.260800 4.333677 20.726516 9.516688 5.476874 -34.758680 -1.942306 -8.637127 30.754927 -17.398379 3.301211 -23.230215 0.000000 0.000000 0.000000 -32.260121 21.086992 21.400561 -44.335090 -27.475356 -2.385882 -19.275678 -49.595084 14.890799 0.000000 0.000000 0.000000 11.064907 10.845735 -36.717691 49.606871 -47.784484 -25.318469 33.011442 21.364190 -0.580118 0.000000 0.000000 0.000000 
1.912907 0.950249 0.828724 -168.654921 -60.907523 165.000748 -4.214069 1.051040 -6.175053 18.259652 15.453996 33.586941 -32.063920 -18.821879 2.083022 0.000000 0.000000 0.000000 -2.579931 1.491179 -5.774885 10.320028 8.748176 26.643586 -25.454589 -16.172943 20.765142 0.000000 0.000000 0.000000 -1.559700 2.808094 19.250196 9.783535 2.488902 -28.938351 -1.865200 -1.456337 25.241294 -11.585608 4.192517 -12.929302 0.000000 0.000000 0.000000 -31.791827 18.588245 15.373559 -40.953335 -16.854454 -6.164443 -24.363034 -46.369981 16.504492 0.000000 0.000000 0.000000 14.910738 10.701386 -28.811839 49.004273 -39.671279 -19.516608 33.749070 28.210423 1.326210 0.000000 0.000000 0.000000 
1.933590 0.945880 0.805205 -163.857728 -72.735741 160.643811 -3.545126 0.882455 -7.701268 18.240407 12.579942 34.264480 -23.803845 -19.649702 -2.098527 0.000000 0.000000 0.000000 -4.277248 1.693000 -3.075844 7.398837 6.388828 24.175473 -24.711676 -20.165480 20.325505 0.000000 0.000000 0.000000 -1.241645 2.690147 19.967707 9.466951 1.851007 -31.166351 -1.808176 0.445016 27.451532 -14.170161 3.212413 -16.956199 0.000000 0.000000 0.000000 -35.777346 16.704968 14.668195 -37.227375 -11.998063 -8.842708 -19.752183 -45.480152 12.732653 0.000000 0.000000 0.000000 17.150081 8.040196 -23.569278 47.730509 -31.152654 -15.230339 32.545357 33.241645 3.089077 0.000000 0.000000 0.000000 
1.953238 0.933504 0.784858 -140.545638 -83.758788 136.487742 -1.541283 0.899665 -7.303003 15.211131 11.788789 35.767116 -16.284796 -17.056365 -5.366560 0.000000 0.000000 0.000000 -3.850705 1.714446 1.746340 5.887417 4.663884 21.970709 -25.796681 -24.449574 20.131631 0.000000 0.000000 0.000000 -0.376141 2.989149 22.094648 9.678020 1.313617 -31.612126 -3.097215 1.771959 28.527028 -12.499370 2.628224 -16.619468 0.000000 0.000000 0.000000 -33.410868 15.821495 9.693376 -38.099411 -9.561671 -8.608353 -22.390614 -41.067929 13.130950 0.000000 0.000000 0.000000 19.637674 11.065743 -18.895857 41.968153 -24.882293 -9.641020 29.643555 38.207507 4.309399 0.000000 0.000000 0.000000 
1.973442 0.922288 0.768546 -46.138283 -85.068039 43.385725 0.775957 2.034243 -12.716716 12.821832 13.363729 41.042238 -8.958179 -10.299146 -12.301253 0.000000 0.000000 0.000000 -3.943478 1.745354 3.840181 6.082958 2.793824 16.772749 -29.046921 -28.181895 20.721504 0.000000 0.000000 0.000000 0.580696 2.989123 23.488549 8.824012 1.153880 -32.802295 -0.893075 3.233188 28.549175 -14.898511 5.935063 -16.901666 0.000000 0.000000 0.000000 -36.808003 16.591844 7.420229 -35.227761 -7.150585 -9.380279 -20.425244 -38.066690 11.011725 0.000000 0.000000 0.000000 18.315873 10.870583 -13.547733 41.399564 -20.852030 -8.918579 26.951403 41.845377 4.647589 0.000000 0.000000 0.000000 
1.992331 0.915494 0.757073 -13.156181 -76.653704 12.057446 3.644919 3.656940 -17.905800 7.711881 12.456534 40.737295 -4.100795 -2.783636 -15.954601 0.000000 0.000000 0.000000 -4.825242 1.969181 6.051108 7.299269 1.756671 13.231375 -27.011417 -29.960526 17.949475 0.000000 0.000000 0.000000 0.205696 2.934868 24.257970 10.807669 0.842698 -32.245380 -1.760210 5.018901 28.667965 -14.989515 5.860044 -20.526684 0.000000 0.000000 0.000000 -36.032835 15.187321 4.982792 -35.958754 -4.690891 -9.545775 -17.715252 -34.797372 9.109767 0.000000 0.000000 0.000000 16.842637 11.540401 -8.604271 42.900899 -14.916260 -8.013404 20.467292 46.676984 3.394862 0.000000 0.000000 0.000000 
2.009743 0.915771 0.751796 -7.436310 -68.277788 8.208292 5.417047 4.895272 -22.669693 3.064862 13.363380 42.752179 -0.919674 0.729761 -13.067185 0.000000 0.000000 0.000000 -5.093803 1.668202 5.923652 6.627550 1.153870 10.975527 -21.904381 -28.801155 17.628748 0.000000 0.000000 0.000000 -0.109604 2.735503 24.576499 10.446160 0.507872 -32.162092 0.265238 5.868973 27.530912 -15.001103 6.752270 -21.457268 0.000000 0.000000 0.000000 -36.461459 15.391008 1.392063 -35.100212 -2.652995 -8.949184 -17.238250 -32.155345 7.956210 0.000000 0.000000 0.000000 12.873934 10.319917 -4.251673 45.785518 -9.826746 -8.337043 16.286057 45.465252 2.519562 0.000000 0.000000 0.000000 
